<?xml version="1.0" encoding="UTF-8"?>
<svg id="Layer_1" xmlns="http://www.w3.org/2000/svg" viewBox="0 0 52 60">
  <defs>
    <style>
      .cls-1 {
        fill: #fff;
      }

      .cls-2 {
        fill: #198754;
      }
    </style>
  </defs>
  <rect class="cls-1" x="2.67" y="7.29" width="46.03" height="45"/>
  <g>
    <path class="cls-2" d="M48.34,5.96H3.66c-.94,0-1.7.76-1.7,1.7v44.69c0,.94.76,1.7,1.7,1.7h44.69c.94,0,1.7-.76,1.7-1.7V7.66c0-.94-.76-1.7-1.7-1.7ZM46.76,50.76H5.24V9.24h41.51v41.51Z"/>
    <path class="cls-2" d="M24.9,35.34c.31.06.63.12.97.18,4.09.68,4.82,1.62,4.82,3.08,0,1.79-1.67,2.68-4.24,2.68-3.79,0-4.54-1.62-4.92-2.85h-2.55c.2,1.82,1.56,4.87,7.4,4.87,3.91,0,6.89-1.79,6.89-4.95,0-1.63-.57-2.93-2.55-3.88,1.96-.94,2.86-2.51,2.91-4.25,0-.05,0-.1,0-.14,0-2.37-.93-4.28-6.53-5.42-.31-.06-.63-.12-.97-.18-4.09-.68-4.82-1.62-4.82-3.08,0-1.79,1.67-2.68,4.24-2.68,3.79,0,4.54,1.62,4.92,2.85h2.55c-.2-1.82-1.57-4.87-7.4-4.87-3.91,0-6.89,1.79-6.89,4.95,0,1.63.57,2.93,2.55,3.88-1.96.94-2.86,2.51-2.91,4.25,0,.05,0,.1,0,.14,0,2.37.93,4.28,6.53,5.42ZM21.69,27.87c.65-.66,1.59-.97,2.5-1.1,1.1-.16,2.2.06,3.26.34,1.4.37,3.27,1.01,3.54,2.64.03.19.04.39.04.58,0,1.85-1.84,2.77-3.46,2.93-.25.02-.5.03-.74.02-.45-.02-.89-.08-1.33-.19-.82-.2-1.64-.37-2.43-.69-.91-.37-1.78-.95-2.02-1.96-.06-.25-.08-.52-.08-.78,0-.67.24-1.32.72-1.8Z"/>
  </g>
</svg>